# xmcd
#
# Track frame offsets:
# 150
# 16256
# 29605
# 45191
# 61266
# 78283
# 94508
# 111368
# 126174
# 140518
# 157242
# 173555
# 187678
#
# Disc length: 2714 seconds
#
#
# Revision: 1
# Processed by: cddbd v1.5.2PL0 Copyright (c) Steve Scherf et al.
# Submitted via: FreeRIP 2.945 
#
DISCID=9c0a980d
DTITLE=Rebelde - Nosso Amor
DYEAR=2006
DGENRE=Blues
TTITLE0=Nosso Amor
TTITLE1=Feliz Aniversário
TTITLE2=Esse Coração
TTITLE3=Venha De Novo O Amor
TTITLE4=Ao Seu Lado
TTITLE5=Fora
TTITLE6=O Que Houve Com O Amor
TTITLE7=O Que Ha Por Trás
TTITLE8=Atrás De Mim
TTITLE9=Só Para Você
TTITLE10=Uma Canção
TTITLE11=Asy Soy Yo
TTITLE12=Me Voy
EXTD=
EXTT0=
EXTT1=
EXTT2=
EXTT3=
EXTT4=
EXTT5=
EXTT6=
EXTT7=
EXTT8=
EXTT9=
EXTT10=
EXTT11=
EXTT12=
PLAYORDER=
